# xmcd
#
# Track frame offsets:
#	150
#	19005
#	36567
#	60382
#
# Disc length: 1080 seconds
#
# Revision: 1
# Processed by: cddbd v1.4PL0 Copyright (c) Steve Scherf et al.
# Submitted via: audiograbber 1.81.03
#
DISCID=2c043604
DTITLE=Mirah - Single
DYEAR=1994
DGENRE=Dance
TTITLE0=I Can Hear Your Heartbeat
TTITLE1=I Can Hear Your Heartbeat (radio)
TTITLE2=I Can Hear Your Heartbeat
TTITLE3=You Don´t Have To Leave Me
EXTD=
EXTT0=
EXTT1=
EXTT2=
EXTT3=
PLAYORDER=
